<?xml version="1.0" standalone="no"?>
<!DOCTYPE svg PUBLIC "-//W3C//DTD SVG 20010904//EN"
 "http://www.w3.org/TR/2001/REC-SVG-20010904/DTD/svg10.dtd">
<svg version="1.0" xmlns="http://www.w3.org/2000/svg"
 width="553.000000pt" height="553.000000pt" viewBox="0 0 553.000000 553.000000"
 preserveAspectRatio="xMidYMid meet">
<metadata>
Created by potrace 1.11, written by Peter Selinger 2001-2013
</metadata>
<g transform="translate(0.000000,553.000000) scale(0.100000,-0.100000)"
fill="#000000" stroke="none">
<path d="M2555 4388 c-231 -43 -311 -68 -495 -156 -216 -103 -461 -303 -580
-472 -13 -19 -27 -37 -31 -40 -35 -27 -179 -301 -216 -415 -88 -262 -107 -448
-78 -725 19 -174 25 -204 68 -330 l36 -105 1 260 c1 395 22 593 85 782 61 183
151 334 282 473 360 383 936 560 1477 455 470 -91 885 -456 1041 -915 64 -190
89 -449 61 -656 -24 -186 -58 -302 -131 -449 -221 -449 -618 -655 -1261 -655
l-174 0 2 523 3 522 77 7 c183 17 277 108 278 269 0 63 -5 85 -27 130 -47 92
-120 124 -263 117 -123 -6 -179 -42 -229 -148 l-26 -55 -3 -821 -3 -821 53 -6
c251 -27 269 -28 375 -17 172 17 217 25 343 58 140 37 351 135 470 220 104 73
233 186 291 254 30 35 56 65 60 68 29 26 157 227 196 310 46 96 107 264 132
365 30 123 42 448 20 569 -37 211 -75 335 -152 496 -33 70 -96 182 -107 190
-3 3 -28 37 -56 75 -158 224 -469 456 -744 555 -19 6 -44 16 -55 20 -46 18
-174 50 -250 62 -82 14 -408 18 -470 6z"/>
<path d="M637 139 c7 -7 15 -10 18 -7 3 3 -2 9 -12 12 -14 6 -15 5 -6 -5z"/>
<path d="M4910 140 c-9 -6 -10 -10 -3 -10 6 0 15 5 18 10 8 12 4 12 -15 0z"/>
<path d="M688 113 c7 -3 16 -2 19 1 4 3 -2 6 -13 5 -11 0 -14 -3 -6 -6z"/>
<path d="M4858 113 c7 -3 16 -2 19 1 4 3 -2 6 -13 5 -11 0 -14 -3 -6 -6z"/>
<path d="M823 63 c9 -2 23 -2 30 0 6 3 -1 5 -18 5 -16 0 -22 -2 -12 -5z"/>
<path d="M4713 63 c9 -2 23 -2 30 0 6 3 -1 5 -18 5 -16 0 -22 -2 -12 -5z"/>
<path d="M918 43 c12 -2 30 -2 40 0 9 3 -1 5 -23 4 -22 0 -30 -2 -17 -4z"/>
<path d="M4608 43 c12 -2 30 -2 40 0 9 3 -1 5 -23 4 -22 0 -30 -2 -17 -4z"/>
</g>
</svg>
